<svg width="41" height="41" viewBox="0 0 41 41" fill="none" xmlns="http://www.w3.org/2000/svg">
<path d="M9.41335 31.372V26.4771C9.41335 24.8511 10.6874 23.3926 12.4978 23.3926C14.1239 23.3926 15.5823 24.6667 15.5823 26.4771V31.1876C15.5823 34.4565 12.8666 37.1722 9.59775 37.1722C6.32889 37.1722 3.61322 34.4397 3.61322 31.1876V20.8614C3.42882 11.4403 10.8718 3.81299 20.2928 3.81299C29.7138 3.81299 37.14 11.4403 37.14 20.677V31.0032C37.14 34.2721 34.4243 36.9878 31.1555 36.9878C27.8866 36.9878 25.171 34.2721 25.171 31.0032V26.2927C25.171 24.6667 26.445 23.2082 28.2554 23.2082C29.8815 23.2082 31.3399 24.4823 31.3399 26.2927V31.372" stroke="white" stroke-width="2.51451" stroke-linecap="round" stroke-linejoin="round"/>
</svg>
