<svg width="31" height="36" viewBox="0 0 31 36" fill="none" xmlns="http://www.w3.org/2000/svg">
<path d="M10.1353 0.0013801C9.73156 0.0013801 9.32544 0.11538 8.97156 0.342193C8.33031 0.753068 7.9515 1.45844 7.88381 2.22557C7.86562 2.28479 7.8568 2.34649 7.85769 2.40844L7.86006 2.43219C7.86006 2.44288 7.85531 2.45238 7.85531 2.46188C7.85478 2.50414 7.85876 2.54634 7.86719 2.58776C7.91706 4.45451 8.74237 6.23101 10.1674 7.54438V9.00976C2.43319 15.5244 0.146062 21.6412 0.0261248 26.3603H0V27.2866C0 29.7091 1.691 31.8181 4.2465 33.2834C6.802 34.7488 10.2707 35.6264 14.1039 35.6264H16.2664C20.0996 35.6264 23.5695 34.7488 26.1226 33.2834C28.6793 31.8181 30.3703 29.7091 30.3703 27.2866V26.3603H30.3454C30.2243 21.6554 27.9502 15.5612 20.2694 9.06794V7.47669C21.6517 6.17044 22.4533 4.42482 22.5031 2.59013C22.5117 2.54794 22.5157 2.50493 22.515 2.46188C22.515 2.45238 22.5103 2.44288 22.5103 2.43219L22.5126 2.40844C22.5135 2.34649 22.5047 2.28479 22.4865 2.22557C22.4188 1.45844 22.04 0.753068 21.3988 0.342193C21.0515 0.119946 20.6479 0.00183367 20.2356 0.00183367C19.8233 0.00183367 19.4197 0.119946 19.0724 0.342193C18.8767 0.471367 18.7017 0.629525 18.5535 0.811255C18.405 0.629357 18.2296 0.471183 18.0334 0.342193C17.5842 0.0548876 17.0445 -0.055923 16.5185 0.0311311C15.9924 0.118185 15.5172 0.396938 15.1846 0.81363C15.1667 0.791068 15.1549 0.764943 15.1359 0.743568C14.997 0.589275 14.838 0.454283 14.6632 0.342193C14.4047 0.176049 14.1135 0.067105 13.8094 0.0226621C13.5053 -0.0217808 13.1951 -0.000695321 12.8998 0.0845052C12.7016 0.143003 12.5128 0.229792 12.3393 0.342193C12.1612 0.456193 12.0032 0.591568 11.8655 0.743568C11.8465 0.764943 11.8346 0.791068 11.818 0.81363C11.6696 0.63094 11.4942 0.471964 11.2979 0.342193C10.951 0.119467 10.5475 0.0011626 10.1353 0.0013801ZM10.1329 1.17938C10.3099 1.17938 10.488 1.23519 10.6554 1.34207C10.9879 1.55582 11.2195 1.97857 11.2231 2.45238V2.46188C11.2218 2.61664 11.281 2.76577 11.3881 2.87751C11.428 2.92046 11.474 2.95728 11.5247 2.98676C11.5255 2.98675 11.5263 2.98675 11.5271 2.98676C11.561 3.00607 11.5968 3.02198 11.6339 3.03426C11.6347 3.03425 11.6355 3.03425 11.6363 3.03426C11.6722 3.04647 11.7092 3.05522 11.7467 3.06038C11.7483 3.06039 11.7499 3.06039 11.7515 3.06038C11.77 3.06284 11.7886 3.06443 11.8073 3.06513C11.8472 3.06517 11.887 3.06119 11.9261 3.05326C11.9269 3.05325 11.9276 3.05325 11.9284 3.05326C11.948 3.04988 11.9675 3.04552 11.9866 3.04019C11.9926 3.03791 11.9985 3.03554 12.0044 3.03307C12.0164 3.02949 12.0283 3.02553 12.0401 3.02119C12.0409 3.0204 12.0416 3.01961 12.0424 3.01882C12.0963 2.99701 12.1468 2.9674 12.1921 2.93094C12.1929 2.93015 12.1936 2.92936 12.1944 2.92857C12.1952 2.92777 12.196 2.92698 12.1968 2.92619C12.2108 2.91455 12.2243 2.90226 12.2372 2.88938C12.238 2.88938 12.2388 2.88938 12.2396 2.88938C12.2955 2.83329 12.3397 2.76658 12.3695 2.69316C12.3992 2.61974 12.414 2.5411 12.4129 2.46188V2.45238C12.4129 2.33719 12.426 2.22201 12.4521 2.11394C12.5341 1.78144 12.7276 1.50238 12.9794 1.34207C13.1331 1.23741 13.3147 1.18144 13.5007 1.18144C13.6866 1.18144 13.8683 1.23741 14.022 1.34207C14.3569 1.55582 14.5908 1.98332 14.5908 2.46188C14.5904 2.47494 14.5904 2.48801 14.5908 2.50107C14.5908 2.50186 14.5908 2.50265 14.5908 2.50344C14.5933 2.54277 14.5996 2.58175 14.6098 2.61982C14.6148 2.6387 14.6208 2.65733 14.6276 2.67563C14.6276 2.67642 14.6276 2.67721 14.6276 2.67801C14.6486 2.73351 14.6779 2.78554 14.7143 2.83238C14.7266 2.84807 14.7397 2.86313 14.7535 2.87751C14.7667 2.89123 14.7806 2.9043 14.7951 2.91669C14.7951 2.91748 14.7951 2.91828 14.7951 2.91907C14.8851 2.99778 14.9969 3.04745 15.1157 3.06157C15.1153 3.06157 15.1161 3.06157 15.1157 3.06157C15.1354 3.06375 15.1564 3.06494 15.1762 3.06513C15.2756 3.06599 15.3736 3.0419 15.4612 2.99507C15.4609 2.99507 15.4616 2.99507 15.4612 2.99507C15.4788 2.98603 15.497 2.97612 15.5135 2.96538C15.5963 2.91033 15.6639 2.83538 15.7101 2.74741C15.7564 2.65944 15.7798 2.56126 15.7783 2.46188C15.7783 1.98332 16.0122 1.55701 16.3471 1.34207C16.5008 1.23741 16.6825 1.18144 16.8684 1.18144C17.0544 1.18144 17.236 1.23741 17.3898 1.34207C17.7223 1.55582 17.9526 1.97857 17.9562 2.45238V2.46188C17.9549 2.61664 18.0142 2.76577 18.1212 2.87751C18.1611 2.92046 18.2071 2.95728 18.2578 2.98676C18.2586 2.98675 18.2594 2.98675 18.2602 2.98676C18.2942 3.00607 18.33 3.02198 18.3671 3.03426C18.3679 3.03425 18.3686 3.03425 18.3694 3.03426C18.4053 3.04647 18.4423 3.05522 18.4799 3.06038C18.4815 3.06039 18.483 3.06039 18.4846 3.06038C18.5031 3.06284 18.5218 3.06443 18.5404 3.06513C18.5811 3.06533 18.6217 3.06135 18.6616 3.05326C18.6812 3.04988 18.7006 3.04552 18.7197 3.04019C18.7257 3.03791 18.7317 3.03554 18.7376 3.03307C18.7496 3.02949 18.7614 3.02553 18.7732 3.02119C18.7736 3.0204 18.774 3.01961 18.7744 3.01882C18.7926 3.01178 18.8104 3.00386 18.8278 2.99507C18.8632 2.97632 18.8966 2.95404 18.9276 2.92857C18.9284 2.92777 18.9291 2.92698 18.9299 2.92619C18.944 2.91455 18.9574 2.90226 18.9703 2.88938C18.9699 2.88938 18.9707 2.88938 18.9703 2.88938C18.9982 2.86146 19.0245 2.83083 19.0463 2.79794C19.057 2.78181 19.0669 2.76517 19.076 2.74807C19.1228 2.66043 19.1469 2.56243 19.1461 2.46307V2.45238C19.1496 1.97857 19.3824 1.55463 19.7137 1.34207C19.8671 1.2372 20.0486 1.18109 20.2344 1.18109C20.4202 1.18109 20.6017 1.2372 20.7551 1.34207C21.0829 1.55226 21.3121 1.96669 21.3216 2.43219C21.3156 3.88094 20.7373 5.27388 19.6911 6.37232H10.678C9.63181 5.27388 9.0535 3.88094 9.04756 2.43219C9.05706 1.96669 9.28625 1.55226 9.614 1.34207C9.76761 1.2388 9.94787 1.18229 10.1329 1.17938ZM11.3561 7.55982H19.0808V8.61669H11.3549V7.55982H11.3561ZM11.0817 9.80419H19.2874C27.1546 16.3818 29.1816 22.3371 29.1816 26.7712V27.2866C29.1816 29.1545 27.8599 30.9191 25.5312 32.2539C23.2037 33.5886 19.9156 34.4389 16.2652 34.4389H14.1039C10.4536 34.4389 7.16656 33.5886 4.83788 32.2539C2.51038 30.9191 1.1875 29.1545 1.1875 27.2866V26.7712C1.1875 22.3371 3.21456 16.3806 11.0817 9.80419ZM15.5052 15.4413C11.2421 15.4413 7.80662 18.9088 7.80662 23.1576C7.80662 27.4089 11.2421 30.8764 15.5052 30.8764C19.7659 30.8764 23.2441 27.4124 23.2441 23.1576C23.2434 23.0827 23.2285 23.0085 23.2002 22.9391C23.0767 18.7924 19.6888 15.4413 15.5052 15.4413ZM15.5052 16.6288C19.1247 16.6288 22.0566 19.55 22.0566 23.1576C22.0566 26.7676 19.1235 29.6889 15.5052 29.6889C14.648 29.6905 13.799 29.5224 13.007 29.1945C12.215 28.8666 11.4957 28.3853 10.8905 27.7782C10.2853 27.1711 9.8062 26.4504 9.48074 25.6574C9.15527 24.8644 8.98989 24.0148 8.99412 23.1576C8.99021 22.3006 9.15582 21.4514 9.48142 20.6586C9.80703 19.8659 10.2862 19.1454 10.8914 18.5386C11.4965 17.9318 12.2157 17.4506 13.0075 17.1229C13.7994 16.7951 14.6482 16.6272 15.5052 16.6288ZM12.6053 19.0358V19.0477H12.5804V20.2352H13.7976C14.9067 20.2352 15.4672 20.7589 15.6691 21.4108H12.6053V22.5983H15.6691C15.4672 23.2503 14.9055 23.7763 13.7976 23.7763H13.3796L13.3736 23.7704L13.3665 23.7763H12.5804V24.5838L12.5448 24.6194L12.5804 24.6539V24.9638H12.8974L16.5549 28.5382L17.3862 27.6891L14.5207 24.8926C15.0969 24.7847 15.6286 24.5097 16.0494 24.1017C16.4703 23.6937 16.7617 23.1708 16.8874 22.5983H18.506V21.4108H16.8874C16.7948 20.9833 16.5977 20.5796 16.3186 20.2233H18.506V19.0358H12.6053Z" fill="white"/>
</svg>
